<svg width="105.33322753906249px" height="88.39999999999999px" xmlns="http://www.w3.org/2000/svg" viewBox="197.33338623046876 30.800000000000004 105.33322753906249 88.39999999999999" style="background: rgba(0, 0, 0, 0);" preserveAspectRatio="xMidYMid"><defs><filter id="editing-hole" x="-100%" y="-100%" width="300%" height="300%"><feFlood flood-color="#887474" result="black"></feFlood><feMorphology operator="dilate" radius="2" in="SourceGraphic" result="erode"></feMorphology><feGaussianBlur in="erode" stdDeviation="4" result="blur"></feGaussianBlur><feOffset in="blur" dx="2" dy="2" result="offset"></feOffset><feComposite operator="atop" in="offset" in2="black" result="merge"></feComposite><feComposite operator="in" in="merge" in2="SourceGraphic" result="inner-shadow"></feComposite></filter></defs><g filter="url(#editing-hole)"><g transform="translate(220.16439452767372, 89.9850025177002)"><path d="M28.64-17.85L28.64-17.85L28.64-17.85Q28.64 0.47 8.77 0.47L8.77 0.47L8.77 0.47Q5.59 0.47 0.34-0.30L0.34-0.30L5.16-25.71L5.16-25.71Q5.50-27.43 5.72-28.42L5.72-28.42L5.72-28.42Q12.26-28.90 15.16-28.90L15.16-28.90L15.16-28.90Q18.06-28.90 20.73-28.29L20.73-28.29L20.73-28.29Q23.39-27.69 25.16-26.36L25.16-26.36L25.16-26.36Q28.64-23.74 28.64-17.85ZM19.78-19.44L19.78-19.44L19.78-19.44Q19.78-25.84 15.18-25.84L15.18-25.84L14.75-25.84L14.75-25.84Q14.53-25.84 14.32-25.80L14.32-25.80L9.89-2.71L9.89-2.71Q10.06-2.62 10.23-2.62L10.23-2.62L10.58-2.62L10.58-2.62Q12.17-2.62 13.82-3.61L13.82-3.61L13.82-3.61Q15.48-4.60 16.77-6.62L16.77-6.62L16.77-6.62Q19.78-11.31 19.78-19.44ZM39.60 0L30.44 0L35.35-26.14L35.82-28.38L45.02-28.38L39.60 0ZM57.06-2.54L57.06-2.54L57.06-2.54Q55.90 0.86 51.43 0.86L51.43 0.86L51.43 0.86Q48.12 0.86 45.84-3.10L45.84-3.10L45.84-3.10Q43.52-7.05 43.09-13.50L43.09-13.50L43.09-13.50Q47.82-22.15 51.08-25.71L51.08-25.71L51.08-25.71Q54.22-29.11 57.49-29.11L57.49-29.11L57.49-29.11Q59.25-29.11 60.52-28.17L60.52-28.17L60.52-28.17Q61.79-27.22 62.09-25.71L62.09-25.71L62.09-25.71Q60.63-25.11 59.94-24.64L59.94-24.64L59.94-24.64Q58.22-23.35 55.90-20.47L55.90-20.47L51.99-15.78L51.99-15.78Q51.04-14.66 50.65-14.15L50.65-14.15L50.65-14.15Q51.30-10.54 53.23-6.97L53.23-6.97L53.23-6.97Q55.08-3.57 57.06-2.54Z" fill="#ccc"></path></g></g><style>text {
  font-size: 64px;
  font-family: Arial Black;
  dominant-baseline: central;
  text-anchor: middle;
}</style></svg>